<svg xmlns="http://www.w3.org/2000/svg" xmlns:xlink="http://www.w3.org/1999/xlink" version="1.1" x="0px" y="0px" viewBox="0 0 32 32" enable-background="new 0 0 32 32" xml:space="preserve" fill="#efefef">
	<g>
		<path d="M29,14c0.5527344,0,1-0.4472656,1-1s-0.4472656-1-1-1h-3v-1h3c0.5527344,0,1-0.4472656,1-1s-0.4472656-1-1-1h-3   c0-1.6542969-1.3457031-3-3-3V3c0-0.5527344-0.4472656-1-1-1s-1,0.4472656-1,1v3h-1V3c0-0.5527344-0.4472656-1-1-1   s-1,0.4472656-1,1v3h-1V3c0-0.5527344-0.4472656-1-1-1s-1,0.4472656-1,1v3h-1V3c0-0.5527344-0.4472656-1-1-1s-1,0.4472656-1,1v3h-1   V3c0-0.5527344-0.4472656-1-1-1S9,2.4472656,9,3v3C7.3457031,6,6,7.3457031,6,9H3c-0.5527344,0-1,0.4472656-1,1s0.4472656,1,1,1h3   v1H3c-0.5527344,0-1,0.4472656-1,1s0.4472656,1,1,1h3v1H3c-0.5527344,0-1,0.4472656-1,1s0.4472656,1,1,1h3v1H3   c-0.5527344,0-1,0.4472656-1,1s0.4472656,1,1,1h3v1H3c-0.5527344,0-1,0.4472656-1,1s0.4472656,1,1,1h3c0,1.6542969,1.3457031,3,3,3   v3c0,0.5527344,0.4472656,1,1,1s1-0.4472656,1-1v-3h1v3c0,0.5527344,0.4472656,1,1,1s1-0.4472656,1-1v-3h1v3   c0,0.5527344,0.4472656,1,1,1s1-0.4472656,1-1v-3h1v3c0,0.5527344,0.4472656,1,1,1s1-0.4472656,1-1v-3h1v3   c0,0.5527344,0.4472656,1,1,1s1-0.4472656,1-1v-3c1.6542969,0,3-1.3457031,3-3h3c0.5527344,0,1-0.4472656,1-1s-0.4472656-1-1-1h-3   v-1h3c0.5527344,0,1-0.4472656,1-1s-0.4472656-1-1-1h-3v-1h3c0.5527344,0,1-0.4472656,1-1s-0.4472656-1-1-1h-3v-1H29z    M22.9326172,16c0,0.2949219-0.0205078,0.5917969-0.0625,0.9003906l1.8779297,1.0761719   c0.1162109,0.0654297,0.2001953,0.1757813,0.2353516,0.3046875c0.0341797,0.1279297,0.015625,0.265625-0.0517578,0.3808594   l-2.1445313,3.6796875c-0.1386719,0.2382813-0.4433594,0.3183594-0.6796875,0.1816406l-1.8847656-1.078125   c-0.4775391,0.3623047-1.0205078,0.6699219-1.5976563,0.9042969V24.5c0,0.2763672-0.2236328,0.5-0.5,0.5h-4.25   c-0.2763672,0-0.5-0.2236328-0.5-0.5v-2.1503906c-0.5771484-0.234375-1.1201172-0.5419922-1.5976563-0.9042969l-1.8847656,1.078125   c-0.2373047,0.1347656-0.5410156,0.0566406-0.6796875-0.1816406l-2.1445313-3.6796875   C7.0009766,18.546875,6.9824219,18.4091797,7.0166016,18.28125c0.0351563-0.1289063,0.1191406-0.2392578,0.2353516-0.3046875   l1.8779297-1.0761719c-0.0419922-0.3085938-0.0625-0.6054688-0.0625-0.9003906s0.0205078-0.5917969,0.0625-0.9003906   l-1.8779297-1.0761719c-0.1162109-0.0654297-0.2001953-0.1757813-0.2353516-0.3046875   c-0.0341797-0.1279297-0.015625-0.265625,0.0517578-0.3808594l2.1445313-3.6796875   c0.1386719-0.2373047,0.4443359-0.3164063,0.6796875-0.1816406l1.8847656,1.078125   c0.4775391-0.3623047,1.0205078-0.6699219,1.5976563-0.9042969V7.5c0-0.2763672,0.2236328-0.5,0.5-0.5h4.25   c0.2763672,0,0.5,0.2236328,0.5,0.5v2.1503906c0.5771484,0.234375,1.1201172,0.5419922,1.5976563,0.9042969l1.8847656-1.078125   c0.2353516-0.1367188,0.5400391-0.0566406,0.6796875,0.1816406l2.1445313,3.6796875   c0.0673828,0.1152344,0.0859375,0.2529297,0.0517578,0.3808594c-0.0351563,0.1289063-0.1191406,0.2392578-0.2353516,0.3046875   l-1.8779297,1.0761719C22.9121094,15.4082031,22.9326172,15.7050781,22.9326172,16z" />
		<path d="M21.8291016,17.0732422C21.8984375,16.6943359,21.9326172,16.34375,21.9326172,16   s-0.0341797-0.6943359-0.1035156-1.0732422c-0.0380859-0.2080078,0.0595703-0.4179688,0.2441406-0.5234375l1.7412109-0.9970703   l-1.6416016-2.8154297l-1.7490234,1c-0.1835938,0.1054688-0.4121094,0.0839844-0.5722656-0.0527344   c-0.5332031-0.453125-1.1875-0.8242188-1.8925781-1.0712891C17.7587891,10.3964844,17.625,10.2070313,17.625,9.9951172V8h-3.25   v1.9951172c0,0.2119141-0.1337891,0.4013672-0.3339844,0.4716797c-0.7050781,0.2470703-1.359375,0.6181641-1.8925781,1.0712891   c-0.1611328,0.1367188-0.3896484,0.1582031-0.5722656,0.0527344l-1.7490234-1L8.1855469,13.40625l1.7412109,0.9970703   c0.1845703,0.1054688,0.2822266,0.3154297,0.2441406,0.5234375C10.1015625,15.3056641,10.0673828,15.65625,10.0673828,16   s0.0341797,0.6943359,0.1035156,1.0732422c0.0380859,0.2080078-0.0595703,0.4179688-0.2441406,0.5234375L8.1855469,18.59375   l1.6416016,2.8154297l1.7490234-1c0.1826172-0.1074219,0.4111328-0.0849609,0.5722656,0.0527344   c0.5332031,0.453125,1.1875,0.8242188,1.8925781,1.0712891C14.2412109,21.6035156,14.375,21.7929688,14.375,22.0048828V24h3.25   v-1.9951172c0-0.2119141,0.1337891-0.4013672,0.3339844-0.4716797c0.7050781-0.2470703,1.359375-0.6181641,1.8925781-1.0712891   c0.1601563-0.1376953,0.3886719-0.1601563,0.5722656-0.0527344l1.7490234,1l1.6416016-2.8154297l-1.7412109-0.9970703   C21.8886719,17.4912109,21.7910156,17.28125,21.8291016,17.0732422z M16,20c-2.2091675,0-4-1.7908936-4-4   c0-2.2091675,1.7908325-4,4-4s4,1.7908325,4,4C20,18.2091064,18.2091675,20,16,20z" />
		<circle cx="16" cy="16" r="3" />
	</g>
</svg>
