<svg xmlns="http://www.w3.org/2000/svg" viewBox="0 0 96 100" x="0px" y="0px" fill="#315029">
	<title>
		Handover
	</title>
	<g>
		<path d="M58.23,76.18c.07-.12.07-.19.15-.31A1.77,1.77,0,0,1,58.23,76.18Z" />
		<path d="M91.7,80.29l-42.28,15a12.83,12.83,0,0,1-8.87-.12L18.78,86.77v-5c8.09,2.69,7.47,2.51,7.67,2.51a1,1,0,0,0,.33-2l-8-2.67V60.46L25,57a10.07,10.07,0,0,1,9.86,0L56.32,69.1a5.15,5.15,0,0,1,2,6.8,4.1,4.1,0,0,1-4.74,1.61L31.44,70a1,1,0,0,0-1.29.63,1,1,0,0,0,.64,1.29c24,8.12,22.72,7.81,24.16,7.81a6.14,6.14,0,0,0,5.84-4.19c30.28-7.28,28-6.79,28.94-6.79a5.93,5.93,0,0,1,2,11.52Z" />
		<path d="M37.65,36.6a2.42,2.42,0,0,1-4.72-1.08C34.54,36.59,35.9,36.52,37.65,36.6Z" />
		<path d="M74.22,5.7V28.63l-2.43,2.74A12.88,12.88,0,0,1,61.66,35.6L38,34.6c-1.89-.08-3.33.06-4.7-1.43a4.16,4.16,0,0,1-.76-4.3l.36-.68a4.12,4.12,0,0,1,3.34-1.9l21.73-.58a1,1,0,0,0,0-2c-2.13,0,7.74-.21-21.76.58a6,6,0,0,0-4.23,1.88,6.5,6.5,0,0,0-5,2.53,14,14,0,0,0-2,15.73,8.91,8.91,0,0,1-3.93-4l-3.15-6.29a10.25,10.25,0,0,1,.23-9.61l6.19-11A16.71,16.71,0,0,1,39.22,5Z" />
		<path d="M61.16,57.67,52.09,48.6a.83.83,0,0,1,0-1.17l.81-.81a.84.84,0,0,0-.1-1.27l-4-2.84a.84.84,0,0,1-.31-.93,12.07,12.07,0,0,0,.53-4.5l-9.38-.4A4.42,4.42,0,1,1,31.36,34a6.06,6.06,0,0,1-.74-5.88A11.85,11.85,0,0,0,40.81,49.28a.87.87,0,0,1,.95.29l2.84,4a.85.85,0,0,0,1.27.11l.8-.81a.83.83,0,0,1,1.18,0l9.07,9.07,4.36.11Z" />
		<path d="M71.79,31.37A12.88,12.88,0,0,1,61.66,35.6L36.13,34.52a4.12,4.12,0,0,1,.06-8.23l21.73-.58a1,1,0,0,0,1-.92l15.74,3.37Z" />
		<path d="M.35,67V90.62A2.37,2.37,0,0,0,2.72,93H14.41a2.37,2.37,0,0,0,2.37-2.37V67ZM8.56,88a3.55,3.55,0,1,1,3.55-3.55A3.55,3.55,0,0,1,8.56,88Z" />
		<path d="M16.78,65V60.22a2.37,2.37,0,0,0-2.37-2.36H2.72A2.37,2.37,0,0,0,.35,60.22V65Z" />
		<path d="M76.22,9.15V32.76a2.37,2.37,0,0,0,2.37,2.37H90.28a2.37,2.37,0,0,0,2.37-2.37V9.15Zm8.21,21A3.55,3.55,0,1,1,88,26.62,3.55,3.55,0,0,1,84.43,30.17Z" />
		<path d="M92.65,7.15V2.37A2.37,2.37,0,0,0,90.28,0H78.59a2.37,2.37,0,0,0-2.37,2.37V7.15Z" />
	</g>
</svg>
