<svg xmlns="http://www.w3.org/2000/svg" version="1.1" viewBox="-5.0 -10.0 110.0 110.0" fill="#315029">
	<path d="m21.301 55.602s0.070313 0.070313 0.10156 0.10938l26.828 26.828c0.48828 0.48828 1.1289 0.73047 1.7695 0.73047s1.2812-0.23828 1.7695-0.73047l29.148-29.148c8.3711-8.3711 8.3711-21.988 0-30.359-8.3711-8.3711-21.988-8.3711-30.359 0l-0.55078 0.55078-0.55078-0.55078c-8.3711-8.3711-21.988-8.3711-30.359 0-4.0586 4.0586-6.2891 9.4492-6.2891 15.18 0 5.7305 2.2305 11.129 6.2891 15.18l2.2188 2.2188zm1.3203-29.051c6.4219-6.4219 16.871-6.4219 23.289 0l2.3203 2.3203c0.98047 0.98047 2.5586 0.98047 3.5391 0l2.3203-2.3203c3.1094-3.1094 7.25-4.8203 11.648-4.8203 4.3984 0 8.5391 1.7109 11.648 4.8203 6.4219 6.4219 6.4219 16.871 0 23.289l-27.379 27.379-24.961-24.961s-0.070313-0.070312-0.10156-0.10937l-2.3203-2.3203c-6.4219-6.4219-6.4219-16.871 0-23.289z" />
</svg>
