<svg xmlns="http://www.w3.org/2000/svg" version="1.1" viewBox="-5.0 0 110.0 100.0" fill="#315029">
	<g>
		<path d="m22.449 87.262h1.5078v6.5508h-1.5117c-1.8008 0-3.2695-1.4688-3.2695-3.2695 0-1.8125 1.4688-3.2812 3.2734-3.2812z" />
		<path d="m26.043 87.262h48.512v6.5508h-48.512z" />
		<path d="m80.207 90.543-3.5703 2.375v-4.7617z" />
		<path d="m7.1875 60.02c-0.082031 0.11328-0.17578 0.23047-0.25 0.34375v-45.832c0-5.7695 4.4258-10.531 10.062-11.051v50.852c-3.8906 0.33203-7.6289 2.4336-9.8125 5.6875z" />
		<path d="m83.469 69.23v3.0625h3.0508v-3.0625zv3.0625h3.0508v-3.0625zv3.0625h3.0508v-3.0625zv3.0625h3.0508v-3.0625zv3.0625h3.0508v-3.0625zv3.0625h3.0508v-3.0625zm0-40.906v3.0508h3.0508v-3.0508zm0 40.906v3.0625h3.0508v-3.0625zm0-40.906v3.0508h3.0508v-3.0508zm0 40.906v3.0625h3.0508v-3.0625zm-46.645-40.906v3.0508h3.0508v-3.0508zm46.645 0v3.0508h3.0508v-3.0508zm0 40.906v3.0625h3.0508v-3.0625zm0-40.906v3.0508h3.0508v-3.0508zm0 40.906v3.0625h3.0508v-3.0625zm-46.645-40.906v3.0508h3.0508v-3.0508zv3.0508h3.0508v-3.0508zm46.645 0v3.0508h3.0508v-3.0508zm0 40.906v3.0625h3.0508v-3.0625zm0-40.906v3.0508h3.0508v-3.0508zm0 40.906v3.0625h3.0508v-3.0625zm-46.645-40.906v3.0508h3.0508v-3.0508zv3.0508h3.0508v-3.0508zm46.645 0v3.0508h3.0508v-3.0508zm0 40.906v3.0625h3.0508v-3.0625zm0-40.906v3.0508h3.0508v-3.0508zm0 40.906v3.0625h3.0508v-3.0625zm-46.645-40.906v3.0508h3.0508v-3.0508zv3.0508h3.0508v-3.0508zm0 40.906v3.0625h3.0508v-3.0625zm46.645-40.906v3.0508h3.0508v-3.0508zm0 40.906v3.0625h3.0508v-3.0625zm0-40.906v3.0508h3.0508v-3.0508zm0 40.906v3.0625h3.0508v-3.0625zm-46.645 0v3.0625h3.0508v-3.0625zm0-40.906v3.0508h3.0508v-3.0508zv3.0508h3.0508v-3.0508zm0 40.906v3.0625h3.0508v-3.0625zm13.75-17.398v-15.133c-7.3125 0.53125-13.105 6.6445-13.105 14.094 0 7.793 6.3438 14.137 14.145 14.137 7.4375 0 13.562-5.7812 14.094-13.094zm32.895-23.508v3.0508h3.0508v-3.0508zm0 40.906v3.0625h3.0508v-3.0625zm0-40.906v3.0508h3.0508v-3.0508zm0 40.906v3.0625h3.0508v-3.0625zm-32.895-17.398v-15.133c-7.3125 0.53125-13.105 6.6445-13.105 14.094 0 7.793 6.3438 14.137 14.145 14.137 7.4375 0 13.562-5.7812 14.094-13.094zm-13.75 17.398v3.0625h3.0508v-3.0625zm0-40.906v3.0508h3.0508v-3.0508zv3.0508h3.0508v-3.0508zm0 40.906v3.0625h3.0508v-3.0625zm13.75-17.398v-15.133c-7.3125 0.53125-13.105 6.6445-13.105 14.094 0 7.793 6.3438 14.137 14.145 14.137 7.4375 0 13.562-5.7812 14.094-13.094zm6.082-19.145v13.051h13.062c-0.51172-6.9688-6.0938-12.539-13.062-13.051zm26.812-4.3633v3.0508h3.0508v-3.0508zm0 40.906v3.0625h3.0508v-3.0625zm0-40.906v3.0508h3.0508v-3.0508zm0 40.906v3.0625h3.0508v-3.0625zm-32.895-17.398v-15.133c-7.3125 0.53125-13.105 6.6445-13.105 14.094 0 7.793 6.3438 14.137 14.145 14.137 7.4375 0 13.562-5.7812 14.094-13.094zm-13.75 17.398v3.0625h3.0508v-3.0625zm0-40.906v3.0508h3.0508v-3.0508zm19.832 4.3633v13.051h13.062c-0.51172-6.9688-6.0938-12.539-13.062-13.051zm30.938-14.613h-68.512v38.301h-1.043c-5.7734-0.085938-10.973 4.8477-11.082 10.637-0.050781 1.2617 0.09375 2.543 0.46875 3.8125 1.5 5.1133 6.4258 8.6875 11.988 8.6875h68.176c1.6445 0 2.9883-1.3438 2.9883-2.9883l0.003906-55.473c0-1.6445-1.3438-2.9766-2.9883-2.9766zm-18.406 8.1641h9.5117v2.082l-9.5117 0.003907zm9.5117 16.293v-2.082h9.5v2.082zm9.5 2.1758v2.082l-9.5 0.003907v-2.082zm-19.012-13.176h9.5117v2.082h-9.5117zm-14.613-0.96875h1.043c8.9492 0 16.219 7.2812 16.219 16.219v1.043h-17.262zm-19.836-4.3242h7.2188v7.2188h-7.2188zm-2.6875 48.281h-9.5117v-2.082h9.5117zm0-5.2891h-9.5117v-2.082h9.5117zm0-10.273h-9.5117v-2.082h9.5117zm0-4.2578h-9.5117v-2.082h9.5117zm0-4.25h-9.5117v-2.082h9.5117zm0-16.836h-9.5117v-2.082h9.5117zm0-5.2891h-9.5117v-2.082h9.5117zm9.9062 46.051h-7.2188v-7.2305h7.2188zm25.875-23.582c0 8.9492-7.2812 16.219-16.219 16.219-8.9492 0-16.23-7.2695-16.23-16.219s7.2812-16.219 16.23-16.219h1.043v15.176h15.176zm10.867 23.727h-9.5117v-2.082h9.5117zm0-5.2891h-9.5117v-2.082l9.5117-0.003907zm0-20.273h9.5v2.082l-9.5 0.003907zm9.9062 25.418h-7.2188v-7.2305h7.2188zm0-40.918h-7.2188v-7.2188h7.2188zm-2.0859 35.773h-3.0508v3.0625h3.0508zm0-40.906h-3.0508v3.0508h3.0508zm-29.863 4.3633v13.051h13.062c-0.51172-6.9688-6.0938-12.539-13.062-13.051zm-6.082 4.0117c-7.3125 0.53125-13.105 6.6445-13.105 14.094 0 7.793 6.3438 14.137 14.145 14.137 7.4375 0 13.562-5.7812 14.094-13.094l-15.133-0.003907zm-10.699 32.531h-3.0508v3.0625h3.0508zm-3.0508-37.855h3.0508v-3.0508h-3.0508zm19.832 1.3125v13.051h13.062c-0.51172-6.9688-6.0938-12.539-13.062-13.051zm-19.832-4.3633v3.0508h3.0508v-3.0508zm0 40.906v3.0625h3.0508v-3.0625zm13.75-17.398v-15.133c-7.3125 0.53125-13.105 6.6445-13.105 14.094 0 7.793 6.3438 14.137 14.145 14.137 7.4375 0 13.562-5.7812 14.094-13.094zm32.895 17.398v3.0625h3.0508v-3.0625zm0-40.906v3.0508h3.0508v-3.0508zm0 40.906v3.0625h3.0508v-3.0625zm0-40.906v3.0508h3.0508v-3.0508zm-26.812 4.3633v13.051h13.062c-0.51172-6.9688-6.0938-12.539-13.062-13.051zm-6.082 19.145v-15.133c-7.3125 0.53125-13.105 6.6445-13.105 14.094 0 7.793 6.3438 14.137 14.145 14.137 7.4375 0 13.562-5.7812 14.094-13.094zm-13.75 17.398v3.0625h3.0508v-3.0625zm0-40.906v3.0508h3.0508v-3.0508zv3.0508h3.0508v-3.0508zm0 40.906v3.0625h3.0508v-3.0625zm46.645 0v3.0625h3.0508v-3.0625zm0-40.906v3.0508h3.0508v-3.0508zm0 40.906v3.0625h3.0508v-3.0625zm0-40.906v3.0508h3.0508v-3.0508zm-46.645 40.906v3.0625h3.0508v-3.0625zm0-40.906v3.0508h3.0508v-3.0508zv3.0508h3.0508v-3.0508zm46.645 40.906v3.0625h3.0508v-3.0625zm0-40.906v3.0508h3.0508v-3.0508zm0 40.906v3.0625h3.0508v-3.0625zm0-40.906v3.0508h3.0508v-3.0508zm-46.645 0v3.0508h3.0508v-3.0508zv3.0508h3.0508v-3.0508zm46.645 40.906v3.0625h3.0508v-3.0625zm0-40.906v3.0508h3.0508v-3.0508zm0 40.906v3.0625h3.0508v-3.0625zm0-40.906v3.0508h3.0508v-3.0508zm-46.645 0v3.0508h3.0508v-3.0508zv3.0508h3.0508v-3.0508zm46.645 40.906v3.0625h3.0508v-3.0625zm0-40.906v3.0508h3.0508v-3.0508zm0 40.906v3.0625h3.0508v-3.0625zm0-40.906v3.0508h3.0508v-3.0508zm-46.645 0v3.0508h3.0508v-3.0508zv3.0508h3.0508v-3.0508zm46.645 40.906v3.0625h3.0508v-3.0625zm0-40.906v3.0508h3.0508v-3.0508zm0 40.906v3.0625h3.0508v-3.0625zm0-40.906v3.0508h3.0508v-3.0508zm-46.645 0v3.0508h3.0508v-3.0508zm46.645 40.906v3.0625h3.0508v-3.0625zv3.0625h3.0508v-3.0625zv3.0625h3.0508v-3.0625zv3.0625h3.0508v-3.0625zv3.0625h3.0508v-3.0625zv3.0625h3.0508v-3.0625z" />
	</g>
</svg>
