<svg xmlns="http://www.w3.org/2000/svg" data-name="Layer 1" viewBox="0 0 100 100" x="0px" y="0px" fill="#f9f9f9">
	<path d="M87.37,55.86c-3.98-.33-2.86,7.18-2.91,11.77l-.05,5.39v1.35s-.08,1.18-.08,1.18c0,.39-.1,.77-.15,1.16l-.09,.58-.15,.56c-.74,3.02-2.59,5.73-5.06,7.59-1.24,.93-2.61,1.68-4.09,2.14-1.5,.47-2.97,.66-4.63,.67h-10.77s-21.55,.03-21.55,.03h-10.78c-1.67,0-3.14-.18-4.64-.66-1.48-.46-2.86-1.22-4.1-2.16-2.47-1.87-4.3-4.6-5.01-7.62-.11-.37-.19-.75-.23-1.14-.04-.38-.14-.76-.14-1.15l-.05-1.17v-1.35s.05-5.39,.05-5.39c.06-7.18,.14-14.36,.27-21.54l.22-10.77,.07-2.69,.04-1.35,.02-.67,.05-.56c.09-1.47,.44-2.91,1.04-4.23,1.18-2.64,3.23-4.88,5.77-6.13,1.26-.64,2.61-1.05,3.97-1.23l1.03-.1h1.04c.78,.03,1.76,.09,2.63,.12,6.69,.32,16.4,.7,16.18-4.3-.18-4.1-9.35-3.64-15.54-3.66h-2.63c-.39-.02-.99,.02-1.53,.04-.55,.02-1.1,.05-1.64,.15-2.19,.28-4.33,.95-6.29,1.96-3.93,1.99-7.18,5.29-9.02,9.29-.93,1.99-1.56,4.13-1.78,6.32-.2,2.37-.08,3.92-.09,5.71l.09,10.54,.19,21.08,.04,5.27c.03,1.81-.05,3.32,.14,5.64,.49,4.27,2.38,8.4,5.38,11.47,3.11,3.23,7.36,5.37,11.84,5.87,2.41,.22,4.03,.11,5.91,.14h5.51s22.03,0,22.03,0h11.02s1.38,0,1.38,0c.21,0,.49,0,.77-.02l.84-.04c.56-.01,1.12-.1,1.67-.19,.56-.08,1.11-.17,1.65-.33,2.18-.53,4.29-1.43,6.15-2.68,3.74-2.49,6.57-6.29,7.89-10.6l.42-1.63c.11-.55,.18-1.11,.27-1.66,.1-.55,.08-1.12,.12-1.68,.01-.27,.03-.58,.03-.82v-.69s0-5.51,0-5.51c0-4.83,.98-12.01-2.7-12.32Z" />
	<path d="M93.27,21.26v-1.44c-.01-.26,0-.45-.02-.76l-.05-.89c-.24-2.37-1.22-4.66-2.8-6.44-1.55-1.8-3.68-3.09-6.01-3.68-.58-.13-1.18-.26-1.77-.3l-.87-.06-.72-.03-2.88-.16c-3.85-.26-7.69-.68-11.53-1.36-1.79-.32-4.39-.7-4.33,4.3,.05,4.1,2.51,3.64,4.16,3.66,3.76,.04,7.53-.08,11.29-.21l2.82-.1,1.38-.04c.28,0,.57,0,.85,.04,.36,.04,.7,.13,1.04,.24-.29,.34-.57,.7-.85,.97-14.12,13.3-26.8,28.06-42.42,39.82-.71,.53-1.53,1.17-2.06,1.95v-1.31s0-2.95,0-2.95l-.02-11.8c0-1.29,.98-3.22-2.7-3.3-3.98-.09-2.86,1.92-2.91,3.15-.14,3.85-.16,7.69-.15,11.54v2.89s.02,1.44,.02,1.44c0,.26,0,.45,.01,.76l.05,.89c.24,2.37,1.22,4.66,2.8,6.44,1.55,1.8,3.68,3.09,6.01,3.68,.58,.13,1.18,.26,1.77,.3l.87,.06,.72,.03,2.88,.16c3.85,.26,7.69,.68,11.53,1.36,1.79,.32,4.39,.7,4.33-4.3-.05-4.1-2.51-3.64-4.16-3.66-3.76-.04-7.53,.08-11.29,.21l-2.82,.1-1.38,.04c-.05,0-.1,0-.16,0,.8-.51,1.49-1.3,2.11-1.91,6.76-6.65,13.07-13.76,19.77-20.46,7.01-7.01,14.03-14.01,21.02-21.04,.19-.19,.41-.37,.64-.56,.04,.25,.04,.49,.06,.79v1.48s0,2.95,0,2.95l.02,11.8c0,1.29-.98,3.22,2.7,3.3,3.98,.09,2.86-1.92,2.91-3.15,.14-3.85,.16-7.69,.15-11.54v-2.89Z" />
</svg>
