<svg xmlns="http://www.w3.org/2000/svg" version="1.1" viewBox="5.0 10.0 90.0 90.0" fill="#f9f9f9">
	<path d="m46.414 19.258c1.4688-2.9727 5.7031-2.9727 7.1719 0l7.8438 15.875c0.58203 1.1758 1.707 1.9961 3.0078 2.1836l17.539 2.5625c3.2812 0.47656 4.5898 4.5117 2.2109 6.8242l-12.68 12.336c-0.94141 0.92188-1.375 2.2461-1.1523 3.5469l2.9922 17.426c0.5625 3.2695-2.8672 5.7617-5.8008 4.2188l-15.688-8.2383c-1.1641-0.61328-2.5547-0.61328-3.7188 0l-15.688 8.2383c-2.9336 1.543-6.3633-0.94922-5.8008-4.2188l2.9922-17.426c0.22266-1.3008-0.21094-2.625-1.1523-3.5469l-12.68-12.336c-2.3789-2.3125-1.0703-6.3477 2.2109-6.8242l17.539-2.5625c1.3008-0.1875 2.4258-1.0078 3.0078-2.1836z" />
</svg>
